<?xml version="1.0" encoding="UTF-8"?>
<svg width="84px" height="60px" viewBox="0 0 84 60" version="1.1" xmlns="http://www.w3.org/2000/svg" xmlns:xlink="http://www.w3.org/1999/xlink">
    <!-- Generator: Sketch 46.2 (44496) - http://www.bohemiancoding.com/sketch -->
    <title>Stroke 167</title>
    <desc>Created with Sketch.</desc>
    <defs></defs>
    <g id="Page-1" stroke="none" stroke-width="1" fill="none" fill-rule="evenodd">
        <g id="Hexagon-Icons" transform="translate(-81.000000, -295.000000)" stroke="#FFFFFF" stroke-width="2">
            <g id="Group-2" transform="translate(60.000000, 253.000000)">
                <path d="M55.0264,82.2885 L55.0234,59.3785 L76.8984,70.8725 L55.0264,82.2885 L55.0264,82.2885 Z M99.8404,47.3145 C96.7614,44.0655 93.3104,44.0515 91.7294,43.8615 C80.3994,43.0365 63.4024,43.0365 63.4024,43.0365 L63.3684,43.0365 C63.3684,43.0365 46.3734,43.0365 35.0414,43.8615 C33.4594,44.0515 30.0084,44.0655 26.9274,47.3145 C24.5004,49.7895 23.7114,55.4075 23.7114,55.4075 C23.7114,55.4075 22.9024,62.0075 22.9024,68.6045 L22.9024,74.7915 C22.9024,81.3915 23.7114,87.9885 23.7114,87.9885 C23.7114,87.9885 24.5004,93.6075 26.9274,96.0825 C30.0084,99.3305 34.0544,99.2285 35.8564,99.5675 C42.3344,100.1935 63.3864,100.3885 63.3864,100.3885 C63.3864,100.3885 80.3994,100.3625 91.7294,99.5365 C93.3104,99.3465 96.7614,99.3305 99.8404,96.0825 C102.2674,93.6075 103.0594,87.9885 103.0594,87.9885 C103.0594,87.9885 103.8714,81.3915 103.8714,74.7915 L103.8714,68.6045 C103.8714,62.0075 103.0594,55.4075 103.0594,55.4075 C103.0594,55.4075 102.2674,49.7895 99.8404,47.3145 L99.8404,47.3145 Z" id="Stroke-167"></path>
            </g>
        </g>
    </g>
</svg>